<?xml version="1.0" encoding="UTF-8"?>
<svg xmlns="http://www.w3.org/2000/svg" xmlns:xlink="http://www.w3.org/1999/xlink" width="375pt" height="374.999991pt" viewBox="0 0 375 374.999991" version="1.2">
<defs>
<clipPath id="clip1">
  <path d="M 70 7.839844 L 306 7.839844 L 306 367 L 70 367 Z M 70 7.839844 "/>
</clipPath>
</defs>
<g id="surface1">
<rect x="0" y="0" width="375" height="374.999991" style="fill:rgb(100%,100%,100%);fill-opacity:1;stroke:none;"/>
<rect x="0" y="0" width="375" height="374.999991" style="fill:rgb(100%,100%,100%);fill-opacity:1;stroke:none;"/>
<rect x="0" y="0" width="375" height="374.999991" style="fill:rgb(100%,100%,100%);fill-opacity:1;stroke:none;"/>
<g clip-path="url(#clip1)" clip-rule="nonzero">
<path style=" stroke:none;fill-rule:nonzero;fill:rgb(94.509888%,30.589294%,22.749329%);fill-opacity:1;" d="M 85.65625 203.292969 C 91.363281 197.734375 90.710938 196.054688 92.222656 190.703125 C 104.089844 171.117188 121.765625 155.46875 142.847656 146.15625 C 144.144531 146.46875 145.886719 145.785156 147.230469 144.332031 C 159.835938 139.394531 173.554688 136.683594 187.898438 136.683594 C 202.378906 136.683594 216.210938 139.441406 228.910156 144.460938 C 229.910156 145.792969 231.910156 146.402344 234.21875 146.804688 C 234.203125 146.835938 234.1875 146.867188 234.171875 146.902344 C 234.28125 146.886719 234.386719 146.867188 234.496094 146.855469 C 260.199219 158.679688 280.640625 179.992188 291.414062 206.320312 C 291.417969 206.324219 291.421875 206.328125 291.429688 206.328125 C 291.5625 206.644531 291.691406 206.964844 291.824219 207.289062 C 290.972656 213.769531 293.210938 217.648438 296.578125 222.210938 C 298.652344 230.753906 299.765625 239.675781 299.765625 248.863281 C 299.765625 258.644531 298.515625 268.121094 296.171875 277.160156 C 293.828125 286.191406 290.390625 294.792969 286.007812 302.792969 C 283.96875 303.679688 282.9375 304.960938 283.464844 307.199219 L 283.289062 307.480469 C 270.882812 327.734375 252.242188 343.722656 230.046875 352.785156 C 230.050781 352.792969 230.050781 352.796875 230.054688 352.800781 C 229.59375 352.988281 229.132812 353.175781 228.671875 353.359375 C 223.847656 353.359375 220.527344 354.214844 218.59375 356.773438 C 208.839844 359.558594 198.546875 361.042969 187.898438 361.042969 C 175.96875 361.042969 164.476562 359.175781 153.695312 355.703125 C 143.050781 352.277344 133.105469 347.285156 124.117188 341.019531 C 124.117188 341.023438 124.113281 341.023438 124.113281 341.023438 C 124 340.9375 123.878906 340.867188 123.765625 340.785156 C 121.984375 337.855469 120.46875 336.226562 117.726562 336.226562 C 117.082031 335.699219 116.441406 335.167969 115.808594 334.628906 C 115.808594 334.621094 115.808594 334.617188 115.808594 334.609375 C 97.480469 319.089844 84.179688 297.792969 78.75 273.488281 L 78.722656 273.375 C 79.878906 267.125 79.519531 262.964844 76.257812 255.859375 C 76.117188 253.542969 76.035156 251.214844 76.035156 248.863281 C 76.035156 232.632812 79.476562 217.214844 85.65625 203.292969 Z M 70.628906 259.328125 C 70.671875 259.742188 70.710938 260.160156 70.75 260.570312 C 70.957031 262.578125 71.1875 264.304688 71.410156 265.746094 L 71.417969 265.820312 C 71.8125 268.359375 72.167969 270.027344 72.273438 270.65625 C 79.5625 308.125 104.78125 341.359375 142.546875 357.152344 C 202.582031 382.265625 271.546875 353.820312 296.585938 293.613281 C 314.871094 249.65625 304.65625 200.945312 274.46875 168.066406 L 274.492188 168.054688 C 252.769531 138.496094 264.097656 109.609375 264.359375 109.488281 C 247.347656 127.898438 249.4375 143.269531 249.582031 144.460938 C 237.539062 113.542969 250.292969 83.226562 251.382812 81.300781 C 246.566406 86.890625 242.378906 92.742188 240.167969 99.882812 C 238.789062 104.332031 238.179688 108.941406 237.539062 113.542969 C 236.984375 117.546875 236.546875 121.929688 234.710938 125.597656 C 233.714844 127.585938 231.761719 129.316406 230.0625 126.964844 C 227.851562 123.902344 227.761719 119.132812 227.757812 115.53125 C 227.730469 106.394531 230.046875 97.324219 233.589844 88.953125 C 235.46875 84.53125 237.691406 80.207031 240.523438 76.328125 C 242.953125 72.992188 245.898438 70.238281 249.070312 67.613281 C 246.964844 68.253906 244.824219 68.875 242.859375 69.867188 C 240.808594 70.894531 239.105469 72.375 237.566406 74.066406 C 235.601562 76.222656 233.863281 78.582031 231.835938 80.6875 C 230.492188 82.09375 228.3125 84.453125 226.128906 84.226562 C 223.984375 84.003906 223.734375 81.097656 223.691406 79.445312 C 223.609375 76.003906 224.359375 72.558594 224.957031 69.191406 C 226.722656 59.277344 226.976562 49.410156 226.324219 39.367188 C 225.898438 32.824219 225.253906 26.207031 223.671875 19.832031 C 222.613281 15.550781 220.898438 11.679688 218.683594 7.890625 C 220.667969 18.773438 222.972656 29.875 222.308594 41 C 221.703125 51.203125 218.222656 60.929688 215.195312 70.601562 C 213.496094 76.050781 211.726562 81.503906 209.238281 86.648438 C 206.808594 91.65625 203.660156 96.828125 199.1875 100.261719 C 196.585938 102.257812 192.316406 103.75 191.566406 99.246094 C 191.113281 96.496094 191.867188 93.519531 192.597656 90.886719 C 193.78125 86.636719 195.457031 82.527344 197.203125 78.484375 C 201.21875 69.179688 205.953125 60.175781 209.523438 50.683594 C 212.070312 43.929688 213.730469 37.019531 213.480469 29.769531 C 213.433594 28.402344 213.335938 27.035156 213.246094 25.671875 C 211.378906 32.992188 209.015625 40.132812 206.273438 47.167969 C 203.386719 54.554688 200.335938 62.320312 195.484375 68.664062 C 191.800781 73.5 187.046875 77.582031 182.613281 81.699219 C 177.972656 86.015625 173.140625 90.050781 168.242188 94.058594 C 158.523438 102.015625 149.421875 110.988281 141.464844 120.722656 C 129.476562 135.390625 116.179688 162.855469 106.386719 157.710938 C 105.5 157.246094 104.785156 155.96875 104.503906 155 C 103.734375 152.269531 104.816406 149.324219 105.960938 146.875 C 106.671875 145.359375 107.492188 143.902344 108.3125 142.449219 C 82.976562 178.382812 73.890625 209.585938 71.171875 232.25 C 70.058594 240.414062 69.835938 248.585938 70.421875 256.640625 C 70.488281 257.582031 70.554688 258.480469 70.628906 259.328125 "/>
</g>
<path style=" stroke:none;fill-rule:nonzero;fill:rgb(94.509888%,30.589294%,22.749329%);fill-opacity:1;" d="M 125.679688 102.773438 C 114.425781 119.941406 116.296875 140.984375 116.296875 140.984375 C 118.808594 129.765625 137.277344 115.550781 149.234375 105.042969 C 161.1875 94.539062 162.949219 81.414062 162.949219 81.414062 C 154.675781 95.957031 139.796875 100.707031 139.796875 100.707031 C 148.414062 89.078125 154.121094 90.738281 161.3125 75.007812 C 168.507812 59.277344 160.550781 40.164062 160.550781 40.164062 C 166.847656 70.515625 136.9375 85.597656 125.679688 102.773438 "/>
<path style=" stroke:none;fill-rule:nonzero;fill:rgb(2.749634%,3.529358%,3.919983%);fill-opacity:1;" d="M 115.808594 334.628906 C 116.441406 335.167969 117.082031 335.699219 117.726562 336.226562 C 117.078125 335.699219 116.449219 335.148438 115.808594 334.609375 C 115.808594 334.617188 115.808594 334.621094 115.808594 334.628906 "/>
<path style=" stroke:none;fill-rule:nonzero;fill:rgb(2.749634%,3.529358%,3.919983%);fill-opacity:1;" d="M 283.289062 307.476562 L 283.464844 307.199219 C 283.410156 307.292969 283.347656 307.386719 283.289062 307.476562 "/>
<path style=" stroke:none;fill-rule:nonzero;fill:rgb(2.749634%,3.529358%,3.919983%);fill-opacity:1;" d="M 124.113281 341.023438 C 124.117188 341.023438 124.117188 341.023438 124.117188 341.019531 C 124 340.941406 123.878906 340.863281 123.765625 340.785156 C 123.878906 340.867188 124 340.9375 124.113281 341.023438 "/>
<path style=" stroke:none;fill-rule:nonzero;fill:rgb(2.749634%,3.529358%,3.919983%);fill-opacity:1;" d="M 78.75 273.488281 C 78.742188 273.453125 78.730469 273.414062 78.722656 273.375 L 78.75 273.488281 "/>
<path style=" stroke:none;fill-rule:nonzero;fill:rgb(2.749634%,3.529358%,3.919983%);fill-opacity:1;" d="M 230.054688 352.800781 C 230.054688 352.796875 230.050781 352.792969 230.046875 352.785156 C 229.589844 352.972656 229.136719 353.179688 228.671875 353.359375 C 229.136719 353.175781 229.59375 352.988281 230.054688 352.800781 "/>
<path style=" stroke:none;fill-rule:nonzero;fill:rgb(2.749634%,3.529358%,3.919983%);fill-opacity:1;" d="M 95.144531 202.84375 C 100.316406 208.644531 113.027344 207.71875 131.226562 202.023438 L 131.230469 202.023438 C 131.757812 209.914062 132.941406 218.503906 134.832031 227.851562 C 118.480469 233.316406 104.199219 242.070312 95.65625 248.863281 C 86.085938 256.472656 80.035156 257.789062 76.261719 255.855469 C 79.519531 262.964844 79.878906 267.125 78.722656 273.375 C 81.285156 268.066406 86.160156 260.484375 95.191406 252.691406 C 101.566406 246.339844 110.523438 239.972656 122.550781 236.007812 C 126.527344 234.285156 130.835938 232.644531 135.511719 231.113281 C 137.5625 240.648438 139.96875 249.96875 142.71875 258.949219 C 101.957031 273.4375 111.644531 317.757812 117.726562 336.226562 C 120.46875 336.226562 121.984375 337.855469 123.765625 340.785156 C 120.011719 331.453125 114.925781 315.679688 115.859375 300.429688 C 116.792969 285.179688 123.742188 270.453125 144.066406 263.226562 C 148.027344 275.523438 152.636719 287.136719 157.828125 297.734375 C 163.015625 308.332031 168.792969 317.914062 175.085938 326.148438 C 187.675781 342.621094 202.339844 353.699219 218.59375 356.773438 C 220.527344 354.214844 223.847656 353.359375 228.671875 353.359375 C 193.449219 350.792969 164.113281 313.277344 147.121094 262.222656 C 191.675781 248.761719 223.019531 291.613281 270.636719 304.554688 C 270.757812 304.574219 270.875 304.597656 270.996094 304.617188 C 270.988281 304.625 270.984375 304.636719 270.976562 304.648438 C 275.019531 305.730469 279.175781 306.601562 283.464844 307.199219 C 282.941406 304.960938 283.96875 303.679688 286.007812 302.792969 C 257.660156 299.597656 234.894531 284.671875 213.074219 272.398438 C 191.246094 260.132812 170.355469 250.523438 145.746094 257.964844 C 142.933594 249.046875 140.496094 239.742188 138.464844 230.164062 C 151.410156 226.046875 165.640625 222.316406 180.230469 219.324219 C 194.820312 216.335938 209.78125 214.09375 224.179688 212.949219 C 252.980469 210.664062 279.566406 212.789062 296.578125 222.210938 C 293.210938 217.648438 290.972656 213.769531 291.824219 207.285156 C 290.691406 213.902344 284.082031 213.308594 277.984375 211.910156 C 240.195312 203.214844 181.539062 212.875 137.796875 226.886719 C 135.933594 217.503906 134.796875 208.890625 134.324219 200.984375 C 171.601562 187.761719 193.832031 151.757812 234.171875 146.898438 C 234.191406 146.867188 234.203125 146.835938 234.222656 146.800781 C 231.910156 146.402344 229.914062 145.792969 228.910156 144.460938 C 191.695312 151.417969 169.511719 184.019531 134.160156 197.734375 C 133.261719 174.242188 138.347656 157.164062 147.230469 144.328125 C 145.886719 145.785156 144.144531 146.46875 142.847656 146.15625 C 134.585938 158.988281 130 175.914062 131.054688 198.878906 C 100.1875 209.640625 93.523438 198.105469 92.222656 190.703125 C 90.710938 196.054688 91.363281 197.734375 85.660156 203.289062 C 88.550781 200.984375 92.179688 199.515625 95.144531 202.84375 "/>
<path style=" stroke:none;fill-rule:nonzero;fill:rgb(2.749634%,3.529358%,3.919983%);fill-opacity:1;" d="M 291.429688 206.324219 C 291.425781 206.324219 291.421875 206.324219 291.414062 206.320312 C 291.546875 206.644531 291.695312 206.960938 291.824219 207.285156 C 291.695312 206.964844 291.5625 206.640625 291.429688 206.324219 "/>
<path style=" stroke:none;fill-rule:nonzero;fill:rgb(94.509888%,28.239441%,14.509583%);fill-opacity:1;" d="M 273.191406 204.75 C 272.226562 210.597656 266.382812 209.734375 260.957031 208.832031 C 227.789062 203.230469 176.816406 212.542969 138.164062 224.917969 C 136.519531 216.632812 135.515625 209.015625 135.097656 202.035156 C 168.128906 190.3125 190.503906 157.84375 223.609375 154.203125 C 247.148438 161.667969 266.460938 184.21875 273.191406 204.75 Z M 137.796875 226.886719 C 181.539062 212.875 240.195312 203.214844 277.984375 211.910156 C 284.082031 213.308594 290.691406 213.902344 291.824219 207.285156 C 291.695312 206.960938 291.546875 206.644531 291.414062 206.320312 C 280.640625 179.992188 260.199219 158.679688 234.496094 146.855469 C 234.386719 146.867188 234.28125 146.886719 234.171875 146.898438 C 193.832031 151.757812 171.601562 187.761719 134.324219 200.984375 C 134.796875 208.890625 135.933594 217.503906 137.796875 226.886719 "/>
<path style=" stroke:none;fill-rule:nonzero;fill:rgb(95.289612%,36.859131%,15.289307%);fill-opacity:1;" d="M 254.546875 202.203125 C 253.761719 207.296875 248.675781 206.15625 243.929688 205.753906 C 215.386719 203.246094 172.09375 212.207031 138.53125 222.953125 C 137.105469 215.753906 136.234375 209.152344 135.867188 203.085938 C 164.554688 192.90625 187.0625 164.128906 212.726562 161.546875 C 233.78125 164.507812 251.757812 187.9375 254.546875 202.203125 Z M 138.164062 224.917969 C 176.816406 212.542969 227.789062 203.230469 260.957031 208.832031 C 266.382812 209.734375 272.226562 210.597656 273.191406 204.75 C 266.460938 184.21875 247.148438 161.667969 223.609375 154.203125 C 190.503906 157.84375 168.128906 190.3125 135.097656 202.035156 C 135.515625 209.015625 136.519531 216.632812 138.164062 224.917969 "/>
<path style=" stroke:none;fill-rule:nonzero;fill:rgb(96.078491%,45.878601%,16.079712%);fill-opacity:1;" d="M 235.910156 199.664062 C 235.296875 203.992188 230.976562 202.574219 226.90625 202.675781 C 202.976562 203.261719 167.371094 211.875 138.902344 220.988281 C 137.691406 214.882812 136.953125 209.273438 136.644531 204.128906 C 160.976562 195.496094 183.625 170.417969 201.84375 168.890625 C 220.414062 167.347656 237.054688 191.644531 235.910156 199.664062 Z M 138.53125 222.953125 C 172.09375 212.207031 215.386719 203.246094 243.929688 205.753906 C 248.675781 206.15625 253.761719 207.296875 254.546875 202.203125 C 251.757812 187.9375 233.78125 164.507812 212.726562 161.546875 C 187.0625 164.128906 164.554688 192.90625 135.867188 203.085938 C 136.234375 209.152344 137.105469 215.753906 138.53125 222.953125 "/>
<path style=" stroke:none;fill-rule:nonzero;fill:rgb(96.469116%,54.899597%,17.649841%);fill-opacity:1;" d="M 138.902344 220.988281 C 167.371094 211.875 202.976562 203.261719 226.90625 202.675781 C 230.976562 202.574219 235.296875 203.992188 235.910156 199.664062 C 237.054688 191.644531 220.414062 167.347656 201.84375 168.890625 C 183.625 170.417969 160.976562 195.496094 136.644531 204.128906 C 136.953125 209.273438 137.691406 214.882812 138.902344 220.988281 "/>
<path style=" stroke:none;fill-rule:nonzero;fill:rgb(94.509888%,28.239441%,14.509583%);fill-opacity:1;" d="M 147.097656 148.855469 C 158.175781 144.523438 168.578125 142.480469 181.167969 142.195312 C 193.976562 141.902344 204.074219 143.558594 215.238281 147.523438 C 186.8125 155.648438 166.667969 183.730469 135.617188 195.777344 C 134.828125 175.140625 139.292969 160.132812 147.097656 148.855469 Z M 134.160156 197.734375 C 169.511719 184.019531 191.695312 151.417969 228.910156 144.460938 C 216.210938 139.4375 202.378906 136.683594 187.898438 136.683594 C 173.554688 136.683594 159.835938 139.390625 147.230469 144.328125 C 138.347656 157.164062 133.261719 174.242188 134.160156 197.734375 "/>
<path style=" stroke:none;fill-rule:nonzero;fill:rgb(95.289612%,36.859131%,15.289307%);fill-opacity:1;" d="M 146.96875 153.394531 C 156.515625 149.652344 163.605469 148.285156 174.4375 147.714844 C 185.574219 147.117188 191.9375 147.675781 201.570312 150.585938 C 181.933594 159.878906 163.835938 183.4375 137.074219 193.820312 C 136.390625 176.042969 140.242188 163.105469 146.96875 153.394531 Z M 215.238281 147.523438 C 204.074219 143.558594 193.976562 141.902344 181.167969 142.195312 C 168.578125 142.480469 158.175781 144.523438 147.097656 148.855469 C 139.292969 160.132812 134.828125 175.140625 135.617188 195.777344 C 166.667969 183.730469 186.8125 155.648438 215.238281 147.523438 "/>
<path style=" stroke:none;fill-rule:nonzero;fill:rgb(96.078491%,45.878601%,16.079712%);fill-opacity:1;" d="M 146.839844 157.917969 C 154.851562 154.78125 158.625 154.082031 167.703125 153.230469 C 177.175781 152.339844 179.796875 151.792969 187.898438 153.648438 C 177.046875 164.109375 161 183.148438 138.527344 191.863281 C 137.960938 176.9375 141.191406 166.074219 146.839844 157.917969 Z M 201.570312 150.585938 C 191.9375 147.675781 185.574219 147.117188 174.4375 147.714844 C 163.605469 148.285156 156.515625 149.652344 146.96875 153.394531 C 140.242188 163.105469 136.390625 176.042969 137.074219 193.820312 C 163.835938 183.4375 181.933594 159.878906 201.570312 150.585938 "/>
<path style=" stroke:none;fill-rule:nonzero;fill:rgb(96.469116%,54.899597%,17.649841%);fill-opacity:1;" d="M 187.898438 153.648438 C 179.796875 151.792969 177.175781 152.339844 167.703125 153.230469 C 158.625 154.082031 154.851562 154.78125 146.839844 157.917969 C 141.191406 166.074219 137.960938 176.9375 138.527344 191.863281 C 161 183.148438 177.046875 164.109375 187.898438 153.648438 "/>
<path style=" stroke:none;fill-rule:nonzero;fill:rgb(94.509888%,28.239441%,14.509583%);fill-opacity:1;" d="M 139.761719 151.242188 C 132.78125 162.9375 129.144531 177.664062 130.335938 198.214844 C 102.804688 208.179688 96.71875 197.929688 95.480469 191.308594 C 105.894531 173.648438 120.984375 159.804688 139.761719 151.242188 Z M 131.054688 198.878906 C 130 175.914062 134.585938 158.988281 142.847656 146.15625 C 121.765625 155.46875 104.089844 171.117188 92.222656 190.703125 C 93.523438 198.105469 100.1875 209.640625 131.054688 198.878906 "/>
<path style=" stroke:none;fill-rule:nonzero;fill:rgb(94.898987%,33.329773%,14.898682%);fill-opacity:1;" d="M 136.679688 156.320312 C 130.980469 166.894531 128.289062 179.414062 129.613281 197.554688 C 105.429688 206.722656 99.914062 197.742188 98.734375 191.914062 C 107.695312 176.175781 120.203125 164.136719 136.679688 156.320312 Z M 130.335938 198.214844 C 129.144531 177.664062 132.78125 162.9375 139.761719 151.242188 C 120.984375 159.804688 105.894531 173.648438 95.480469 191.308594 C 96.71875 197.929688 102.804688 208.179688 130.335938 198.214844 "/>
<path style=" stroke:none;fill-rule:nonzero;fill:rgb(95.289612%,38.819885%,15.289307%);fill-opacity:1;" d="M 133.59375 161.398438 C 129.175781 170.851562 127.433594 181.160156 128.890625 196.886719 C 108.050781 205.261719 103.113281 197.558594 101.984375 192.519531 C 109.5 178.703125 119.429688 168.46875 133.59375 161.398438 Z M 129.613281 197.554688 C 128.289062 179.414062 130.980469 166.894531 136.679688 156.320312 C 120.203125 164.136719 107.695312 176.175781 98.734375 191.914062 C 99.914062 197.742188 105.429688 206.722656 129.613281 197.554688 "/>
<path style=" stroke:none;fill-rule:nonzero;fill:rgb(95.689392%,44.309998%,16.079712%);fill-opacity:1;" d="M 130.515625 166.484375 C 127.371094 174.804688 126.578125 182.914062 128.167969 196.222656 C 110.671875 203.800781 106.308594 197.375 105.238281 193.128906 C 111.304688 181.226562 118.644531 172.800781 130.515625 166.484375 Z M 128.890625 196.886719 C 127.433594 181.160156 129.175781 170.851562 133.59375 161.398438 C 119.429688 168.46875 109.5 178.703125 101.984375 192.519531 C 103.113281 197.558594 108.050781 205.261719 128.890625 196.886719 "/>
<path style=" stroke:none;fill-rule:nonzero;fill:rgb(96.078491%,49.409485%,16.859436%);fill-opacity:1;" d="M 127.429688 171.566406 C 125.570312 178.761719 125.722656 184.660156 127.445312 195.558594 C 113.296875 202.34375 109.503906 197.195312 108.492188 193.734375 C 113.109375 183.753906 117.863281 177.136719 127.429688 171.566406 Z M 128.167969 196.222656 C 126.578125 182.914062 127.371094 174.804688 130.515625 166.484375 C 118.644531 172.800781 111.304688 181.226562 105.238281 193.128906 C 106.308594 197.375 110.671875 203.800781 128.167969 196.222656 "/>
<path style=" stroke:none;fill-rule:nonzero;fill:rgb(96.469116%,54.899597%,17.649841%);fill-opacity:1;" d="M 127.445312 195.558594 C 125.722656 184.660156 125.570312 178.761719 127.429688 171.566406 C 117.863281 177.136719 113.109375 183.753906 108.492188 193.734375 C 109.503906 197.195312 113.296875 202.34375 127.445312 195.558594 "/>
<path style=" stroke:none;fill-rule:nonzero;fill:rgb(94.509888%,28.239441%,14.509583%);fill-opacity:1;" d="M 220.757812 346.300781 C 189.527344 343.890625 163.488281 309.117188 148.003906 262.589844 C 192.910156 250.433594 224.675781 296.925781 270.636719 304.554688 C 223.019531 291.613281 191.675781 248.761719 147.121094 262.222656 C 164.113281 313.277344 193.449219 350.792969 228.671875 353.359375 C 229.136719 353.179688 229.589844 352.972656 230.046875 352.785156 C 252.242188 343.722656 270.886719 327.734375 283.289062 307.476562 C 283.347656 307.386719 283.410156 307.292969 283.464844 307.199219 C 279.175781 306.601562 275.019531 305.730469 270.976562 304.648438 C 260.945312 324.191406 241.738281 339.089844 220.757812 346.300781 "/>
<path style=" stroke:none;fill-rule:nonzero;fill:rgb(94.898987%,32.548523%,14.509583%);fill-opacity:1;" d="M 212.847656 339.253906 C 185.601562 336.988281 162.867188 304.960938 148.890625 262.960938 C 190.496094 253.210938 221.308594 294.828125 258.523438 302.035156 C 251.128906 320.351562 231.921875 333.808594 212.847656 339.253906 Z M 148.003906 262.589844 C 163.488281 309.117188 189.527344 343.890625 220.757812 346.300781 C 241.738281 339.089844 260.945312 324.191406 270.976562 304.648438 C 270.984375 304.636719 270.988281 304.625 270.996094 304.617188 C 270.875 304.597656 270.757812 304.574219 270.636719 304.554688 C 224.675781 296.925781 192.910156 250.433594 148.003906 262.589844 "/>
<path style=" stroke:none;fill-rule:nonzero;fill:rgb(95.289612%,36.859131%,15.289307%);fill-opacity:1;" d="M 204.9375 332.1875 C 181.683594 330.085938 162.246094 300.800781 149.773438 263.328125 C 187.96875 256.011719 217.773438 292.492188 246.054688 299.453125 C 241.289062 316.519531 222.089844 328.53125 204.9375 332.1875 Z M 148.890625 262.960938 C 162.867188 304.960938 185.601562 336.988281 212.847656 339.253906 C 231.921875 333.808594 251.128906 320.351562 258.523438 302.035156 C 221.308594 294.828125 190.496094 253.210938 148.890625 262.960938 "/>
<path style=" stroke:none;fill-rule:nonzero;fill:rgb(95.689392%,41.569519%,15.689087%);fill-opacity:1;" d="M 197.027344 325.136719 C 177.765625 323.183594 161.625 296.652344 150.65625 263.695312 C 185.441406 258.816406 214.238281 290.152344 233.582031 296.875 C 231.453125 312.679688 212.261719 323.257812 197.027344 325.136719 Z M 149.773438 263.328125 C 162.246094 300.800781 181.683594 330.085938 204.9375 332.1875 C 222.089844 328.53125 241.289062 316.519531 246.054688 299.453125 C 217.773438 292.492188 187.96875 256.011719 149.773438 263.328125 "/>
<path style=" stroke:none;fill-rule:nonzero;fill:rgb(96.078491%,45.878601%,16.079712%);fill-opacity:1;" d="M 189.117188 318.082031 C 173.84375 316.28125 161.003906 292.492188 151.542969 264.0625 C 182.914062 261.625 210.703125 287.8125 221.113281 294.289062 C 221.617188 308.855469 202.433594 317.980469 189.117188 318.082031 Z M 150.65625 263.695312 C 161.625 296.652344 177.765625 323.183594 197.027344 325.136719 C 212.261719 323.257812 231.453125 312.679688 233.582031 296.875 C 214.238281 290.152344 185.441406 258.816406 150.65625 263.695312 "/>
<path style=" stroke:none;fill-rule:nonzero;fill:rgb(96.469116%,50.588989%,16.859436%);fill-opacity:1;" d="M 208.640625 291.707031 C 211.777344 305.023438 192.605469 312.703125 181.207031 311.03125 C 169.921875 309.378906 160.382812 288.335938 152.425781 264.433594 C 180.386719 264.433594 207.171875 285.46875 208.640625 291.707031 Z M 151.542969 264.0625 C 161.003906 292.492188 173.84375 316.28125 189.117188 318.082031 C 202.433594 317.980469 221.617188 308.855469 221.113281 294.289062 C 210.703125 287.8125 182.914062 261.625 151.542969 264.0625 "/>
<path style=" stroke:none;fill-rule:nonzero;fill:rgb(96.469116%,54.899597%,17.649841%);fill-opacity:1;" d="M 181.207031 311.03125 C 192.605469 312.703125 211.777344 305.023438 208.640625 291.707031 C 207.171875 285.46875 180.386719 264.433594 152.425781 264.433594 C 160.382812 288.335938 169.921875 309.378906 181.207031 311.03125 "/>
<path style=" stroke:none;fill-rule:nonzero;fill:rgb(94.509888%,28.239441%,14.509583%);fill-opacity:1;" d="M 176.03125 354.851562 C 166.691406 354.777344 157.5 353.191406 148.90625 350.035156 C 139.515625 346.589844 130.628906 341.03125 123.648438 335.179688 C 120.578125 326.59375 116.792969 313.246094 117.703125 300.429688 C 118.609375 287.617188 124.214844 275.34375 139.917969 268.921875 C 143.085938 273.894531 146.785156 279.519531 150.269531 286.320312 C 151.441406 288.589844 152.421875 290.992188 153.433594 293.5 C 155.488281 298.601562 157.667969 303.671875 160.089844 308.710938 C 161.929688 312.515625 163.957031 316.171875 166.109375 319.703125 C 168.257812 323.230469 170.53125 326.578125 172.984375 329.6875 C 180.695312 339.441406 189.769531 346.570312 199.625 350.609375 C 192.5 353.558594 184.507812 354.949219 176.03125 354.851562 Z M 175.085938 326.148438 C 168.792969 317.914062 163.015625 308.332031 157.828125 297.734375 C 152.636719 287.136719 148.027344 275.523438 144.066406 263.226562 C 123.742188 270.453125 116.792969 285.179688 115.859375 300.429688 C 114.925781 315.679688 120.011719 331.453125 123.765625 340.785156 C 123.878906 340.863281 124 340.941406 124.117188 341.019531 C 133.109375 347.285156 143.050781 352.277344 153.695312 355.703125 C 164.476562 359.175781 175.96875 361.042969 187.898438 361.042969 C 198.550781 361.042969 208.839844 359.558594 218.59375 356.773438 C 202.339844 353.699219 187.675781 342.621094 175.085938 326.148438 "/>
<path style=" stroke:none;fill-rule:nonzero;fill:rgb(94.898987%,34.899902%,14.898682%);fill-opacity:1;" d="M 164.15625 348.65625 C 157.414062 348.480469 150.535156 347.144531 144.113281 344.371094 C 136.109375 340.902344 128.410156 334.894531 123.53125 329.582031 C 121.140625 321.738281 118.65625 310.804688 119.546875 300.429688 C 120.429688 290.050781 124.683594 280.230469 135.769531 274.625 C 139.117188 275.28125 143.179688 277.640625 146.433594 282.886719 C 147.570312 284.714844 148.3125 286.835938 149.046875 289.265625 C 150.339844 293.570312 151.621094 298.167969 153.230469 303.105469 C 154.335938 306.496094 155.667969 309.871094 157.132812 313.25 C 158.519531 316.453125 160.03125 319.609375 161.78125 322.644531 C 166.878906 331.453125 173.414062 338.722656 180.65625 344.445312 C 176.160156 347.558594 170.46875 348.824219 164.15625 348.65625 Z M 172.984375 329.6875 C 170.53125 326.578125 168.257812 323.230469 166.109375 319.703125 C 163.957031 316.171875 161.929688 312.515625 160.089844 308.710938 C 157.667969 303.671875 155.488281 298.601562 153.433594 293.5 C 152.421875 290.992188 151.441406 288.589844 150.269531 286.320312 C 146.785156 279.519531 143.085938 273.894531 139.917969 268.921875 C 124.214844 275.34375 118.609375 287.617188 117.703125 300.429688 C 116.792969 313.246094 120.578125 326.59375 123.648438 335.179688 C 130.628906 341.03125 139.515625 346.589844 148.90625 350.035156 C 157.5 353.191406 166.691406 354.777344 176.03125 354.851562 C 184.507812 354.949219 192.5 353.558594 199.625 350.609375 C 189.769531 346.570312 180.695312 339.441406 172.984375 329.6875 "/>
<path style=" stroke:none;fill-rule:nonzero;fill:rgb(95.689392%,41.569519%,15.689087%);fill-opacity:1;" d="M 152.285156 342.464844 C 148.136719 342.210938 143.597656 341.011719 139.324219 338.703125 C 132.726562 335.136719 126.1875 328.761719 123.40625 323.96875 C 121.703125 316.875 120.523438 308.367188 121.386719 300.425781 C 122.15625 293.347656 124.558594 286.730469 129.652344 281.980469 C 132.929688 276.707031 136.574219 274.230469 138.757812 276.019531 C 139.191406 276.375 139.507812 276.832031 139.738281 277.386719 C 140.773438 277.734375 141.746094 278.398438 142.597656 279.453125 C 143.710938 280.828125 144.238281 282.664062 144.65625 285.039062 C 145.269531 288.515625 145.660156 292.632812 146.375 297.507812 C 146.800781 300.445312 147.40625 303.542969 148.15625 306.808594 C 148.816406 309.671875 149.566406 312.617188 150.582031 315.609375 C 153.203125 323.347656 157.058594 330.878906 161.6875 338.289062 C 159.820312 341.554688 156.433594 342.726562 152.285156 342.464844 Z M 161.78125 322.644531 C 160.03125 319.609375 158.519531 316.453125 157.132812 313.25 C 155.667969 309.871094 154.335938 306.496094 153.230469 303.105469 C 151.621094 298.167969 150.339844 293.570312 149.046875 289.265625 C 148.3125 286.835938 147.570312 284.714844 146.433594 282.886719 C 143.179688 277.640625 139.117188 275.28125 135.769531 274.625 C 124.683594 280.230469 120.429688 290.050781 119.546875 300.429688 C 118.65625 310.804688 121.140625 321.738281 123.53125 329.582031 C 128.410156 334.894531 136.109375 340.902344 144.113281 344.371094 C 150.535156 347.144531 157.414062 348.480469 164.15625 348.65625 C 170.46875 348.824219 176.160156 347.558594 180.65625 344.445312 C 173.414062 338.722656 166.878906 331.453125 161.78125 322.644531 "/>
<path style=" stroke:none;fill-rule:nonzero;fill:rgb(96.078491%,48.239136%,16.468811%);fill-opacity:1;" d="M 148.15625 306.808594 C 147.40625 303.542969 146.800781 300.445312 146.375 297.507812 C 145.660156 292.632812 145.269531 288.515625 144.65625 285.039062 C 144.238281 282.664062 143.710938 280.828125 142.597656 279.453125 C 141.746094 278.398438 140.773438 277.734375 139.738281 277.386719 C 140.789062 279.902344 140.019531 284.542969 139.515625 291.90625 C 139.210938 296.402344 139.003906 301.910156 139.375 308.570312 C 139.753906 315.234375 140.707031 323.042969 142.71875 332.128906 C 144.074219 338.257812 139.558594 336.945312 134.53125 333.035156 C 129.511719 329.125 123.972656 322.621094 123.289062 318.367188 C 122.269531 312.023438 122.386719 305.925781 123.226562 300.425781 C 124.066406 294.921875 125.625 290.007812 127.480469 286.027344 C 128.167969 284.542969 128.902344 283.191406 129.652344 281.980469 C 124.558594 286.730469 122.15625 293.347656 121.386719 300.425781 C 120.523438 308.367188 121.703125 316.875 123.40625 323.96875 C 126.1875 328.761719 132.726562 335.136719 139.324219 338.703125 C 143.597656 341.011719 148.136719 342.210938 152.285156 342.464844 C 156.433594 342.726562 159.820312 341.554688 161.6875 338.289062 C 157.058594 330.878906 153.203125 323.347656 150.582031 315.609375 C 149.566406 312.617188 148.816406 309.671875 148.15625 306.808594 "/>
<path style=" stroke:none;fill-rule:nonzero;fill:rgb(96.469116%,54.899597%,17.649841%);fill-opacity:1;" d="M 123.226562 300.425781 C 122.386719 305.925781 122.269531 312.023438 123.289062 318.367188 C 123.972656 322.621094 129.511719 329.125 134.53125 333.035156 C 139.558594 336.945312 144.074219 338.257812 142.71875 332.128906 C 140.707031 323.042969 139.753906 315.234375 139.375 308.570312 C 139.003906 301.910156 139.210938 296.402344 139.515625 291.90625 C 140.019531 284.542969 140.789062 279.902344 139.738281 277.386719 C 139.507812 276.832031 139.191406 276.375 138.757812 276.019531 C 136.574219 274.230469 132.929688 276.707031 129.652344 281.980469 C 128.902344 283.191406 128.167969 284.542969 127.480469 286.027344 C 125.625 290.007812 124.066406 294.921875 123.226562 300.425781 "/>
<path style=" stroke:none;fill-rule:nonzero;fill:rgb(94.509888%,28.239441%,14.509583%);fill-opacity:1;" d="M 285.417969 246.929688 C 285.203125 254.476562 284.09375 261.789062 282.027344 268.621094 C 279.894531 275.644531 276.816406 282.105469 273.171875 287.675781 C 253.925781 286.949219 234.925781 278.394531 216.308594 269.855469 C 213.179688 268.417969 210.082031 266.933594 206.980469 265.523438 C 187.027344 256.414062 167.46875 249.4375 146.351562 255.820312 C 143.855469 247.890625 141.6875 239.621094 139.882812 231.113281 C 151.402344 227.449219 164.175781 224.199219 177.285156 221.605469 C 190.359375 219.023438 203.773438 217.097656 216.617188 216.089844 C 242.339844 214.066406 265.78125 215.707031 279.679688 223.042969 C 284.214844 230.054688 285.664062 238.511719 285.417969 246.929688 Z M 224.179688 212.949219 C 209.78125 214.09375 194.820312 216.335938 180.230469 219.324219 C 165.640625 222.316406 151.410156 226.046875 138.464844 230.164062 C 140.496094 239.742188 142.933594 249.046875 145.746094 257.964844 C 170.355469 250.523438 191.246094 260.132812 213.074219 272.398438 C 234.894531 284.671875 257.660156 299.597656 286.007812 302.792969 C 290.390625 294.792969 293.828125 286.191406 296.175781 277.160156 C 298.519531 268.121094 299.765625 258.644531 299.765625 248.863281 C 299.765625 239.675781 298.652344 230.75 296.578125 222.210938 C 279.566406 212.789062 252.980469 210.664062 224.179688 212.949219 "/>
<path style=" stroke:none;fill-rule:nonzero;fill:rgb(95.289612%,36.859131%,15.289307%);fill-opacity:1;" d="M 271.078125 245 C 270.707031 250.3125 269.65625 255.460938 267.878906 260.085938 C 265.945312 265.097656 263.238281 269.421875 260.34375 272.566406 C 245.839844 273.8125 227.914062 267.671875 209.414062 261.519531 C 206.566406 260.574219 203.738281 259.578125 200.886719 258.648438 C 182.808594 252.683594 164.585938 248.347656 146.957031 253.675781 C 144.777344 246.742188 142.882812 239.515625 141.300781 232.0625 C 151.390625 228.859375 162.707031 226.082031 174.335938 223.890625 C 185.894531 221.710938 197.761719 220.109375 209.054688 219.234375 C 231.695312 217.472656 252.003906 218.632812 262.777344 223.886719 C 269.78125 229.351562 271.617188 237.339844 271.078125 245 Z M 216.617188 216.089844 C 203.773438 217.097656 190.359375 219.023438 177.285156 221.605469 C 164.175781 224.199219 151.402344 227.449219 139.882812 231.113281 C 141.6875 239.621094 143.855469 247.890625 146.351562 255.820312 C 167.46875 249.4375 187.027344 256.414062 206.980469 265.523438 C 210.082031 266.933594 213.179688 268.417969 216.308594 269.855469 C 234.925781 278.394531 253.925781 286.949219 273.171875 287.675781 C 276.816406 282.105469 279.894531 275.644531 282.027344 268.621094 C 284.09375 261.789062 285.203125 254.476562 285.417969 246.929688 C 285.664062 238.511719 284.214844 230.054688 279.679688 223.042969 C 265.78125 215.707031 242.339844 214.066406 216.617188 216.089844 "/>
<path style=" stroke:none;fill-rule:nonzero;fill:rgb(96.078491%,45.878601%,16.079712%);fill-opacity:1;" d="M 256.738281 243.066406 C 255.757812 249.9375 251.429688 256.152344 247.507812 257.449219 C 237.75 260.667969 220.960938 256.710938 202.511719 253.1875 C 184.066406 249.660156 163.957031 246.574219 147.566406 251.527344 C 145.695312 245.589844 144.074219 239.390625 142.71875 233.019531 C 159.960938 227.53125 181.925781 223.878906 201.488281 222.371094 C 221.054688 220.882812 238.21875 221.546875 245.871094 224.722656 C 255.34375 228.65625 257.714844 236.183594 256.738281 243.066406 Z M 209.054688 219.234375 C 197.761719 220.109375 185.894531 221.710938 174.335938 223.890625 C 162.707031 226.082031 151.390625 228.859375 141.300781 232.0625 C 142.882812 239.515625 144.777344 246.742188 146.957031 253.675781 C 164.585938 248.347656 182.808594 252.683594 200.886719 258.648438 C 203.738281 259.578125 206.566406 260.574219 209.414062 261.519531 C 227.914062 267.671875 245.839844 273.8125 260.34375 272.566406 C 263.238281 269.421875 265.945312 265.097656 267.878906 260.085938 C 269.65625 255.460938 270.707031 250.3125 271.078125 245 C 271.617188 237.339844 269.78125 229.351562 262.777344 223.886719 C 252.003906 218.632812 231.695312 217.472656 209.054688 219.234375 "/>
<path style=" stroke:none;fill-rule:nonzero;fill:rgb(96.469116%,54.899597%,17.649841%);fill-opacity:1;" d="M 201.488281 222.371094 C 181.925781 223.878906 159.960938 227.53125 142.71875 233.019531 C 144.074219 239.390625 145.695312 245.589844 147.566406 251.527344 C 163.957031 246.574219 184.066406 249.660156 202.511719 253.1875 C 220.960938 256.710938 237.75 260.667969 247.507812 257.449219 C 251.429688 256.152344 255.757812 249.9375 256.738281 243.066406 C 257.714844 236.183594 255.34375 228.65625 245.871094 224.722656 C 238.21875 221.546875 221.054688 220.882812 201.488281 222.371094 "/>
<path style=" stroke:none;fill-rule:nonzero;fill:rgb(94.509888%,28.239441%,14.509583%);fill-opacity:1;" d="M 79.84375 245.816406 C 79.972656 231.207031 82.371094 218.09375 88.320312 205.761719 C 90.851562 203.636719 94.253906 202.265625 97.105469 204.84375 C 97.667969 205.351562 98.308594 205.789062 99.007812 206.195312 C 104.746094 209.535156 116.234375 210.160156 130.574219 203.292969 C 130.996094 209.609375 132.25 218.773438 133.996094 227.378906 C 118.933594 232.417969 105.777344 240.472656 97.914062 246.738281 C 89.097656 253.753906 83.535156 255.105469 80.234375 253.128906 C 79.984375 251.082031 79.859375 248.976562 79.84375 246.855469 C 79.84375 246.515625 79.84375 246.164062 79.84375 245.816406 Z M 95.65625 248.863281 C 104.199219 242.070312 118.480469 233.316406 134.832031 227.851562 C 132.941406 218.503906 131.757812 209.914062 131.230469 202.023438 L 131.226562 202.023438 C 113.027344 207.71875 100.316406 208.644531 95.144531 202.84375 C 92.179688 199.515625 88.550781 200.984375 85.660156 203.289062 C 79.476562 217.214844 76.039062 232.632812 76.039062 248.863281 C 76.039062 251.214844 76.117188 253.539062 76.261719 255.855469 C 80.035156 257.789062 86.085938 256.472656 95.65625 248.863281 "/>
<path style=" stroke:none;fill-rule:nonzero;fill:rgb(94.898987%,33.329773%,14.898682%);fill-opacity:1;" d="M 90.988281 208.222656 C 93.152344 206.289062 96.347656 205.011719 99.070312 206.84375 C 99.632812 207.226562 100.253906 207.550781 100.894531 207.882812 C 106.339844 210.667969 116.558594 210.964844 129.917969 204.566406 C 130.238281 209.304688 131.566406 219.046875 133.164062 226.914062 C 119.390625 231.519531 107.367188 238.890625 100.171875 244.613281 C 92.109375 251.023438 87.03125 252.429688 84.203125 250.414062 C 83.855469 248.621094 83.683594 246.746094 83.65625 244.851562 C 83.652344 244.539062 83.648438 244.230469 83.652344 243.917969 C 83.746094 230.507812 85.109375 219.308594 90.988281 208.222656 Z M 97.914062 246.738281 C 105.777344 240.472656 118.933594 232.417969 133.996094 227.378906 C 132.25 218.773438 130.996094 209.609375 130.574219 203.292969 C 116.234375 210.160156 104.746094 209.535156 99.007812 206.195312 C 98.308594 205.789062 97.667969 205.351562 97.105469 204.84375 C 94.253906 202.265625 90.851562 203.636719 88.320312 205.761719 C 82.371094 218.09375 79.972656 231.207031 79.84375 245.816406 C 79.84375 246.164062 79.84375 246.515625 79.84375 246.855469 C 79.859375 248.976562 79.984375 251.082031 80.234375 253.128906 C 83.535156 255.105469 89.097656 253.753906 97.914062 246.738281 "/>
<path style=" stroke:none;fill-rule:nonzero;fill:rgb(95.289612%,38.819885%,15.289307%);fill-opacity:1;" d="M 93.652344 210.695312 C 95.457031 208.941406 98.476562 207.730469 101.03125 208.847656 C 101.597656 209.089844 102.203125 209.308594 102.792969 209.566406 C 107.9375 211.800781 116.210938 210.0625 129.257812 205.84375 L 129.265625 205.84375 C 129.480469 209 130.882812 219.316406 132.324219 226.445312 C 119.84375 230.617188 108.945312 237.300781 102.429688 242.484375 C 95.125 248.296875 90.53125 249.753906 88.175781 247.691406 C 87.722656 246.160156 87.511719 244.511719 87.464844 242.84375 C 87.457031 242.574219 87.457031 242.296875 87.457031 242.023438 C 87.523438 229.808594 87.855469 220.515625 93.652344 210.695312 Z M 84.203125 250.414062 C 87.03125 252.429688 92.109375 251.023438 100.171875 244.613281 C 107.367188 238.890625 119.390625 231.519531 133.164062 226.914062 C 131.566406 219.046875 130.238281 209.304688 129.917969 204.566406 C 116.558594 210.964844 106.339844 210.667969 100.894531 207.882812 C 100.253906 207.550781 99.632812 207.226562 99.070312 206.84375 C 96.347656 205.011719 93.152344 206.289062 90.988281 208.222656 C 85.109375 219.308594 83.746094 230.507812 83.652344 243.917969 C 83.648438 244.230469 83.652344 244.539062 83.65625 244.851562 C 83.683594 246.746094 83.855469 248.621094 84.203125 250.414062 "/>
<path style=" stroke:none;fill-rule:nonzero;fill:rgb(95.689392%,44.309998%,16.079712%);fill-opacity:1;" d="M 96.316406 213.167969 C 97.753906 211.589844 100.625 210.40625 102.988281 210.84375 C 103.574219 210.957031 104.148438 211.066406 104.679688 211.25 C 109.539062 212.921875 117.210938 212.566406 128.605469 207.113281 L 128.613281 207.113281 C 128.714844 208.691406 130.195312 219.589844 131.488281 225.984375 C 120.300781 229.71875 110.53125 235.710938 104.683594 240.355469 C 98.136719 245.570312 94.027344 247.078125 92.148438 244.964844 C 91.589844 243.707031 91.335938 242.277344 91.273438 240.839844 C 91.269531 240.601562 91.261719 240.367188 91.265625 240.128906 C 91.296875 229.113281 90.601562 221.722656 96.316406 213.167969 Z M 88.175781 247.691406 C 90.53125 249.753906 95.125 248.296875 102.429688 242.484375 C 108.945312 237.300781 119.84375 230.617188 132.324219 226.445312 C 130.882812 219.316406 129.480469 209 129.265625 205.84375 L 129.257812 205.84375 C 116.210938 210.0625 107.9375 211.800781 102.792969 209.566406 C 102.203125 209.308594 101.597656 209.089844 101.03125 208.847656 C 98.476562 207.730469 95.457031 208.941406 93.652344 210.695312 C 87.855469 220.515625 87.523438 229.808594 87.457031 242.023438 C 87.457031 242.296875 87.457031 242.574219 87.464844 242.84375 C 87.511719 244.511719 87.722656 246.160156 88.175781 247.691406 "/>
<path style=" stroke:none;fill-rule:nonzero;fill:rgb(96.078491%,49.409485%,16.859436%);fill-opacity:1;" d="M 98.980469 215.640625 C 100.351562 213.867188 104.3125 212.398438 106.574219 212.933594 C 111.144531 214.023438 116.941406 211.828125 127.953125 208.386719 C 127.953125 208.386719 129.511719 219.855469 130.65625 225.511719 C 120.753906 228.824219 112.113281 234.117188 106.941406 238.230469 C 101.152344 242.839844 97.527344 244.398438 96.121094 242.25 C 95.355469 241.074219 95.070312 239.652344 95.070312 238.230469 C 95.070312 228.410156 93.34375 222.925781 98.980469 215.640625 Z M 91.273438 240.839844 C 91.335938 242.277344 91.589844 243.707031 92.148438 244.964844 C 94.027344 247.078125 98.136719 245.570312 104.683594 240.355469 C 110.53125 235.710938 120.300781 229.71875 131.488281 225.984375 C 130.195312 219.589844 128.714844 208.691406 128.613281 207.113281 L 128.605469 207.113281 C 117.210938 212.566406 109.539062 212.921875 104.679688 211.25 C 104.148438 211.066406 103.574219 210.957031 102.988281 210.84375 C 100.625 210.40625 97.753906 211.589844 96.316406 213.167969 C 90.601562 221.722656 91.296875 229.113281 91.265625 240.128906 C 91.261719 240.367188 91.269531 240.601562 91.273438 240.839844 "/>
<path style=" stroke:none;fill-rule:nonzero;fill:rgb(96.469116%,54.899597%,17.649841%);fill-opacity:1;" d="M 96.121094 242.25 C 97.527344 244.398438 101.152344 242.839844 106.941406 238.230469 C 112.113281 234.117188 120.753906 228.824219 130.65625 225.511719 C 129.511719 219.855469 127.953125 208.386719 127.953125 208.386719 C 116.941406 211.828125 111.144531 214.023438 106.574219 212.933594 C 104.3125 212.398438 100.351562 213.867188 98.980469 215.640625 C 93.34375 222.925781 95.070312 228.410156 95.070312 238.230469 C 95.070312 239.652344 95.355469 241.074219 96.121094 242.25 "/>
<path style=" stroke:none;fill-rule:nonzero;fill:rgb(94.509888%,28.239441%,14.509583%);fill-opacity:1;" d="M 142.71875 258.949219 C 139.96875 249.96875 137.5625 240.648438 135.511719 231.113281 C 130.835938 232.644531 126.527344 234.285156 122.550781 236.007812 C 126.28125 234.777344 130.300781 233.773438 134.640625 233.078125 L 134.644531 233.078125 C 136.347656 241.007812 138.074219 247.828125 140.363281 255.292969 C 108.941406 265.242188 110.828125 299.859375 111.722656 317.074219 C 97.566406 308.570312 86.433594 288.039062 83.222656 269.382812 C 84.925781 265.523438 88.742188 259.117188 95.191406 252.691406 C 86.160156 260.484375 81.285156 268.066406 78.722656 273.375 C 78.730469 273.414062 78.742188 273.453125 78.75 273.488281 C 84.179688 297.792969 97.484375 319.089844 115.808594 334.609375 C 116.449219 335.148438 117.078125 335.699219 117.726562 336.226562 C 111.644531 317.757812 101.957031 273.4375 142.71875 258.949219 "/>
<path style=" stroke:none;fill-rule:nonzero;fill:rgb(95.289612%,36.859131%,15.289307%);fill-opacity:1;" d="M 133.777344 235.039062 C 135.140625 241.363281 136.179688 245.675781 138.003906 251.636719 C 115.921875 257.058594 110.003906 281.957031 105.722656 297.925781 C 96.769531 296.582031 88.542969 277.519531 87.722656 265.398438 C 90.460938 258.1875 107.867188 239.175781 133.777344 235.039062 Z M 111.722656 317.074219 C 110.828125 299.859375 108.941406 265.242188 140.363281 255.292969 C 138.074219 247.828125 136.347656 241.007812 134.644531 233.078125 L 134.640625 233.078125 C 130.300781 233.773438 126.28125 234.777344 122.550781 236.007812 C 110.523438 239.972656 101.566406 246.339844 95.191406 252.691406 C 88.742188 259.117188 84.925781 265.523438 83.222656 269.382812 C 86.433594 288.039062 97.566406 308.570312 111.722656 317.074219 "/>
<path style=" stroke:none;fill-rule:nonzero;fill:rgb(96.078491%,45.878601%,16.079712%);fill-opacity:1;" d="M 132.910156 237.003906 C 133.925781 241.722656 134.289062 243.53125 135.648438 247.976562 C 122.90625 248.863281 109.1875 264.0625 99.714844 278.769531 C 95.96875 284.585938 90.65625 266.992188 92.222656 261.40625 C 93.792969 255.847656 114.300781 243.097656 132.910156 237.003906 Z M 105.722656 297.925781 C 110.003906 281.957031 115.921875 257.058594 138.003906 251.636719 C 136.179688 245.675781 135.140625 241.363281 133.777344 235.039062 C 107.867188 239.175781 90.460938 258.1875 87.722656 265.398438 C 88.542969 277.519531 96.769531 296.582031 105.722656 297.925781 "/>
<path style=" stroke:none;fill-rule:nonzero;fill:rgb(96.469116%,54.899597%,17.649841%);fill-opacity:1;" d="M 99.714844 278.769531 C 109.1875 264.0625 122.90625 248.863281 135.648438 247.976562 C 134.289062 243.53125 133.925781 241.722656 132.910156 237.003906 C 114.300781 243.097656 93.792969 255.847656 92.222656 261.40625 C 90.65625 266.992188 95.96875 284.585938 99.714844 278.769531 "/>
</g>
</svg>
